<?xml version="1.0" encoding="UTF-8"?>
<!DOCTYPE svg PUBLIC "-//W3C//DTD SVG 1.1//EN" "http://www.w3.org/Graphics/SVG/1.1/DTD/svg11.dtd">
<svg xmlns="http://www.w3.org/2000/svg" version="1.1" width="1024px" height="1024px" style="shape-rendering:geometricPrecision; text-rendering:geometricPrecision; image-rendering:optimizeQuality; fill-rule:evenodd; clip-rule:evenodd" xmlns:xlink="http://www.w3.org/1999/xlink">
<g><path style="opacity:1" fill="#fcfcfc" d="M -0.5,-0.5 C 340.833,-0.5 682.167,-0.5 1023.5,-0.5C 1023.5,180.5 1023.5,361.5 1023.5,542.5C 1012.46,492.41 992.622,446.077 964,403.5C 944.326,375.824 920.16,352.991 891.5,335C 871.042,324.468 849.375,317.801 826.5,315C 793.997,313.453 761.997,316.786 730.5,325C 811.839,320.414 873.672,352.581 916,421.5C 938.338,460.853 951.671,503.186 956,548.5C 962.264,613.666 950.597,675.333 921,733.5C 896.23,781.606 858.397,814.772 807.5,833C 791.782,836.929 775.782,838.929 759.5,839C 747.852,868.133 731.185,893.966 709.5,916.5C 712.801,919.156 716.468,921.322 720.5,923C 765.214,942.757 811.881,949.757 860.5,944C 908.891,934.501 948.558,910.668 979.5,872.5C 998.956,847.578 1013.62,820.245 1023.5,790.5C 1023.5,862.833 1023.5,935.167 1023.5,1007.5C 1018.17,1007.5 1012.83,1007.5 1007.5,1007.5C 1002.17,1007.5 996.833,1007.5 991.5,1007.5C 986.167,1007.5 980.833,1007.5 975.5,1007.5C 970.167,1007.5 964.833,1007.5 959.5,1007.5C 954.167,1007.5 948.833,1007.5 943.5,1007.5C 943.5,1012.83 943.5,1018.17 943.5,1023.5C 628.833,1023.5 314.167,1023.5 -0.5,1023.5C -0.5,682.167 -0.5,340.833 -0.5,-0.5 Z"/></g>
<g><path style="opacity:1" fill="#569a28" d="M 996.5,22.5 C 997.152,23.4486 997.486,24.6153 997.5,26C 992.973,64.9978 985.806,103.498 976,141.5C 967.716,166.735 956.716,190.735 943,213.5C 917.047,249.462 882.547,272.629 839.5,283C 831.107,284.412 822.774,286.079 814.5,288C 786.473,291.091 758.473,294.258 730.5,297.5C 729.86,270.844 732.36,244.51 738,218.5C 743.896,195.62 754.562,175.287 770,157.5C 792.022,133.146 818.188,114.646 848.5,102C 882.22,89.196 915.553,75.196 948.5,60C 961.861,52.3218 974.528,43.6551 986.5,34C 990.416,30.5903 993.749,26.757 996.5,22.5 Z"/></g>
<g><path style="opacity:1" fill="#fbb504" d="M 193.5,69.5 C 230.721,82.9836 268.054,96.4836 305.5,110C 327.457,120.278 346.957,134.112 364,151.5C 389.101,183.826 399.434,220.492 395,261.5C 393.489,269.428 392.489,277.428 392,285.5C 390.056,292.202 388.223,298.868 386.5,305.5C 353.182,298.669 320.515,289.503 288.5,278C 269.017,268.672 252.184,255.838 238,239.5C 230.48,226.461 223.48,213.128 217,199.5C 208.52,176.246 202.52,152.246 199,127.5C 196.54,108.196 194.706,88.8628 193.5,69.5 Z"/></g>
<g><path style="opacity:1" fill="#579a29" d="M 544.5,73.5 C 545.268,74.2625 545.768,75.2625 546,76.5C 549.146,103.081 550.146,129.748 549,156.5C 547.647,192.163 535.98,223.83 514,251.5C 506.488,258.677 498.655,265.511 490.5,272C 470.173,283.876 449.173,294.209 427.5,303C 424.883,303.822 422.216,304.322 419.5,304.5C 417.577,293.448 415.41,282.448 413,271.5C 405.362,213.155 425.195,166.655 472.5,132C 490.686,120.742 508.353,108.742 525.5,96C 530.301,92.2761 534.635,88.1094 538.5,83.5C 541.028,80.4377 543.028,77.1044 544.5,73.5 Z"/></g>
<g><path style="opacity:1" fill="#fcb505" d="M 606.5,89.5 C 610.665,93.4968 614.998,97.3301 619.5,101C 638.148,112.431 656.148,124.764 673.5,138C 712.374,171.957 725.541,214.124 713,264.5C 710.041,271.628 707.375,278.961 705,286.5C 703.626,289.275 701.793,291.608 699.5,293.5C 671.084,281.708 646.584,264.375 626,241.5C 616.079,226.072 609.079,209.405 605,191.5C 600.169,157.412 600.669,123.412 606.5,89.5 Z"/></g>
<g><path style="opacity:1" fill="#faba77" d="M 271.5,297.5 C 262.651,297.174 253.984,297.507 245.5,298.5C 243.396,298.799 241.396,298.466 239.5,297.5C 250.326,296.177 260.993,296.177 271.5,297.5 Z"/></g>
<g><path style="opacity:1" fill="#e9482a" d="M 385.5,710.5 C 371.172,769.748 337.506,815.248 284.5,847C 234.21,871.442 182.543,874.776 129.5,857C 108.439,848.637 88.4395,838.471 69.5,826.5C 68.7124,827.77 67.7124,828.77 66.5,829.5C 41.2057,808.041 25.3723,781.041 19,748.5C 10.4937,708.043 12.1604,668.043 24,628.5C 47.4669,550.219 80.8002,476.219 124,406.5C 144.72,374.256 168.887,344.756 196.5,318C 203.871,310.96 211.538,304.294 219.5,298C 220.944,297.219 222.277,297.386 223.5,298.5C 240.915,325.937 249.582,356.104 249.5,389C 249.194,418.953 244.027,448.119 234,476.5C 223.854,501.149 212.52,525.149 200,548.5C 186.485,569.533 173.485,590.866 161,612.5C 147.959,635.623 139.292,660.29 135,686.5C 132.908,707.333 134.908,727.666 141,747.5C 156.393,786.22 184.56,809.72 225.5,818C 242.01,819.368 258.343,818.368 274.5,815C 297.238,807.158 317.571,795.324 335.5,779.5C 356.124,759.234 372.79,736.234 385.5,710.5 Z"/></g>
<g><path style="opacity:1" fill="#fbb504" d="M 1023.5,542.5 C 1023.5,625.167 1023.5,707.833 1023.5,790.5C 1013.62,820.245 998.956,847.578 979.5,872.5C 948.558,910.668 908.891,934.501 860.5,944C 811.881,949.757 765.214,942.757 720.5,923C 716.468,921.322 712.801,919.156 709.5,916.5C 731.185,893.966 747.852,868.133 759.5,839C 775.782,838.929 791.782,836.929 807.5,833C 858.397,814.772 896.23,781.606 921,733.5C 950.597,675.333 962.264,613.666 956,548.5C 951.671,503.186 938.338,460.853 916,421.5C 873.672,352.581 811.839,320.414 730.5,325C 761.997,316.786 793.997,313.453 826.5,315C 849.375,317.801 871.042,324.468 891.5,335C 920.16,352.991 944.326,375.824 964,403.5C 992.622,446.077 1012.46,492.41 1023.5,542.5 Z"/></g>
<g><path style="opacity:1" fill="#e9482a" d="M 479.5,330.5 C 472.5,329.833 465.5,329.167 458.5,328.5C 526.349,308.034 586.683,321.2 639.5,368C 679.077,406.996 707.577,452.829 725,505.5C 752.188,590.526 757.188,676.859 740,764.5C 730.674,806.148 713.008,843.815 687,877.5C 639.77,928.477 581.27,949.643 511.5,941C 487.488,937.217 464.488,930.217 442.5,920C 466.738,896.436 485.405,869.103 498.5,838C 550.602,827.212 591.769,800.045 622,756.5C 642.359,725.451 656.359,691.785 664,655.5C 679.907,577.947 669.574,504.28 633,434.5C 611.425,396.591 581.591,367.091 543.5,346C 522.799,337.587 501.466,332.42 479.5,330.5 Z"/></g>
<g><path style="opacity:1" fill="#f68a7c" d="M 458.5,328.5 C 465.5,329.167 472.5,329.833 479.5,330.5C 468.921,330.083 458.421,330.75 448,332.5C 447.167,332.333 446.333,332.167 445.5,332C 449.649,330.137 453.982,328.97 458.5,328.5 Z"/></g>
<g><path style="opacity:1" fill="#fb890b" d="M 245.5,298.5 C 253.984,297.507 262.651,297.174 271.5,297.5C 311.172,303.67 345.505,320.503 374.5,348C 402.038,375.876 424.538,407.376 442,442.5C 487.798,542.485 500.798,646.818 481,755.5C 473.116,793.494 458.783,828.827 438,861.5C 391.872,922.461 331.039,945.961 255.5,932C 182.676,915.594 119.676,881.427 66.5,829.5C 67.7124,828.77 68.7124,827.77 69.5,826.5C 88.4395,838.471 108.439,848.637 129.5,857C 182.543,874.776 234.21,871.442 284.5,847C 337.506,815.248 371.172,769.748 385.5,710.5C 410.747,651.334 418.58,589.667 409,525.5C 399.603,459.925 373.27,402.258 330,352.5C 313.075,333.894 293.575,318.728 271.5,307C 263.08,303.249 254.413,300.415 245.5,298.5 Z"/></g>
<g><path style="opacity:1" fill="#feff65" d="M 959.5,1007.5 C 959.5,1012.83 959.5,1018.17 959.5,1023.5C 954.167,1023.5 948.833,1023.5 943.5,1023.5C 943.5,1018.17 943.5,1012.83 943.5,1007.5C 948.833,1007.5 954.167,1007.5 959.5,1007.5 Z"/></g>
<g><path style="opacity:1" fill="#42fffe" d="M 959.5,1007.5 C 964.833,1007.5 970.167,1007.5 975.5,1007.5C 975.5,1012.83 975.5,1018.17 975.5,1023.5C 970.167,1023.5 964.833,1023.5 959.5,1023.5C 959.5,1018.17 959.5,1012.83 959.5,1007.5 Z"/></g>
<g><path style="opacity:1" fill="#51da4b" d="M 975.5,1007.5 C 980.833,1007.5 986.167,1007.5 991.5,1007.5C 991.5,1012.83 991.5,1018.17 991.5,1023.5C 986.167,1023.5 980.833,1023.5 975.5,1023.5C 975.5,1018.17 975.5,1012.83 975.5,1007.5 Z"/></g>
<g><path style="opacity:1" fill="#fe6e3b" d="M 991.5,1007.5 C 996.833,1007.5 1002.17,1007.5 1007.5,1007.5C 1007.5,1012.83 1007.5,1018.17 1007.5,1023.5C 1002.17,1023.5 996.833,1023.5 991.5,1023.5C 991.5,1018.17 991.5,1012.83 991.5,1007.5 Z"/></g>
<g><path style="opacity:1" fill="#3c45ff" d="M 1007.5,1007.5 C 1012.83,1007.5 1018.17,1007.5 1023.5,1007.5C 1023.5,1012.83 1023.5,1018.17 1023.5,1023.5C 1018.17,1023.5 1012.83,1023.5 1007.5,1023.5C 1007.5,1018.17 1007.5,1012.83 1007.5,1007.5 Z"/></g>
</svg>
